<?xml version="1.0" encoding="utf-8"?>
<!-- Generator: Adobe Illustrator 22.1.0, SVG Export Plug-In . SVG Version: 6.00 Build 0)  -->
<svg version="1.1" id="Layer_1" xmlns="http://www.w3.org/2000/svg" xmlns:xlink="http://www.w3.org/1999/xlink" x="0px" y="0px"
	 viewBox="0 0 1025 542" style="enable-background:new 0 0 1025 542;" xml:space="preserve">
<style type="text/css">
	.st0{opacity:0.7;}
	
		.st1{opacity:0.24;fill:none;stroke:#448EF6;stroke-width:6;stroke-linecap:round;stroke-linejoin:round;enable-background:new    ;}
	.st2{opacity:0.6;fill:none;stroke:#448EF6;stroke-width:5;stroke-linecap:round;stroke-linejoin:round;enable-background:new    ;}
	
		.st3{opacity:0.24;fill:none;stroke:#448EF6;stroke-width:5;stroke-linecap:round;stroke-linejoin:round;enable-background:new    ;}
	
		.st4{opacity:0.24;fill:none;stroke:#448EF6;stroke-width:4;stroke-linecap:round;stroke-linejoin:round;enable-background:new    ;}
	.st5{opacity:0.6;fill:none;stroke:#448EF6;stroke-width:4;stroke-linecap:round;stroke-linejoin:round;enable-background:new    ;}
	
		.st6{opacity:0.24;fill:none;stroke:#448EF6;stroke-width:7;stroke-linecap:round;stroke-linejoin:round;enable-background:new    ;}
</style>
<g transform="translate(2)" class="st0">
	<path class="st1" d="M96.2,33.5c-4.3-4.7-4.3-8.9,0-12.5"/>
	<path class="st2" d="M546.2,182c-3,5.8-3,11,0,15.5"/>
	<path class="st3" d="M161.2,129c-1,1.8,0,5,3,9.5"/>
	<path class="st3" d="M506.3,364c-7.7,1.8-10,5-7,9.5"/>
	<path class="st4" d="M223.6,206c-5.7,3.2-7,7-4,11.5"/>
	<path class="st1" d="M782,249.5c2.7-4.3,2.7-8.2,0-11.5"/>
	<path class="st1" d="M1019.6,299.5c-4-4.3-4.7-8.2-2-11.5 M342.6,149.5c-4-4.3-4.7-8.2-2-11.5"/>
	<path class="st1" d="M708,67c1.3,4.3,3.3,8.2,6,11.5"/>
	<path class="st5" d="M4,187.5c0-3-1.3-6.2-4-9.5"/>
	<path class="st5" d="M931,404.5c0-3-1.3-6.2-4-9.5"/>
	<path class="st4" d="M683,364.5c0-3-1.3-6.2-4-9.5"/>
	<path class="st1" d="M867.3,99.1c0.3-4.8-1.4-7.8-5.2-9.1"/>
	<path class="st5" d="M286,55c6,2,8,6,6,12"/>
	<path class="st5" d="M964,11c6,2,8,6,6,12"/>
	<path class="st6" d="M57.3,491c-0.2,6.3,2.9,9.6,9.2,9.7"/>
	<path class="st1" d="M502.7,10.1c-0.3-4.8,1.4-7.8,5.2-9.1"/>
	<path class="st5" d="M398.2,539.1c0.3-4.8-1.4-7.8-5.2-9.1"/>
</g>
</svg>
